<?xml version="1.0" encoding="utf-8"?>
<!-- Generator: Adobe Illustrator 23.1.0, SVG Export Plug-In . SVG Version: 6.00 Build 0)  -->
<svg version="1.1" id="Capa_1" xmlns="http://www.w3.org/2000/svg" xmlns:xlink="http://www.w3.org/1999/xlink" x="0px" y="0px"
	 viewBox="0 0 1080 390.1" style="enable-background:new 0 0 1080 390.1;" xml:space="preserve">
<style type="text/css">
	.st0{fill:url(#SVGID_1_);}
	.st1{fill:#016795;}
</style>
<g>
	<linearGradient id="SVGID_1_" gradientUnits="userSpaceOnUse" x1="34.1235" y1="195.0617" x2="217.7288" y2="195.0617">
		<stop  offset="0" style="stop-color:#1B2431"/>
		<stop  offset="1" style="stop-color:#016795"/>
	</linearGradient>
	<path class="st0" d="M116.7,195.4l100.9-78.7V38.2c0-1.5,0-3.1,0.1-4.6c0.2-5.3-0.1-24.6-20-13.3c-2.2,1.3-4.3,2.7-6.2,4.3
		L49,136.8c-1.7,1.3-3.4,2.6-5.2,3.7c-5.6,3.8-19.7,15.7,2,29.4L79,195.4l-28.8,22.4c-2.2,1.7-4.6,3.4-6.9,4.9
		c-5.8,3.9-18.3,14.9,2.1,28.8l148.2,115.3c0,0,22.4,20,24.1-10.3V274L116.7,195.4z M64.3,154.1L193.6,53.2v51.7l-95.7,75.4
		L64.3,154.1z M193.6,337.7L64.3,236.8l33.3-26.6l96.1,75.4V337.7z"/>
	<g>
		<path class="st1" d="M290.8,241.9c-2.1-3.4-4.6-7-7.4-10.9c-2.9-3.9-5.9-7.9-9.2-11.9c-3.3-4-6.7-7.8-10.3-11.5
			c-3.6-3.7-7.2-6.9-10.8-9.7v43.9h-23.3V138.2H253v39c6-6.3,12.1-12.9,18.3-19.8c6.2-6.9,11.9-13.3,17.2-19.2h27.7
			c-7.1,8.4-14.2,16.5-21.3,24.2c-7.1,7.8-14.7,15.6-22.5,23.4c8.3,6.9,16.3,15.1,24,24.6c7.7,9.5,15.1,20,22.2,31.4H290.8z"/>
		<path class="st1" d="M422.6,189.9c0,8.9-1.3,16.7-4,23.4c-2.6,6.7-6.3,12.4-10.8,16.9c-4.6,4.5-10.1,8-16.4,10.3
			c-6.3,2.3-13.1,3.4-20.4,3.4c-7.1,0-13.8-1.1-20.1-3.4c-6.3-2.3-11.8-5.7-16.5-10.3c-4.7-4.5-8.4-10.2-11.1-16.9
			c-2.7-6.7-4-14.5-4-23.4c0-8.9,1.4-16.7,4.2-23.4c2.8-6.7,6.6-12.4,11.3-17c4.7-4.6,10.2-8,16.5-10.3c6.2-2.3,12.8-3.4,19.7-3.4
			c7.1,0,13.8,1.1,20.1,3.4c6.3,2.3,11.8,5.7,16.5,10.3c4.7,4.6,8.4,10.3,11.1,17C421.2,173.3,422.6,181.1,422.6,189.9z
			 M343.4,189.9c0,5.1,0.6,9.7,1.9,13.8c1.2,4.1,3,7.6,5.4,10.5c2.3,2.9,5.2,5.2,8.6,6.8c3.4,1.6,7.3,2.4,11.7,2.4
			c4.3,0,8.2-0.8,11.6-2.4c3.4-1.6,6.3-3.9,8.7-6.8c2.3-2.9,4.1-6.5,5.4-10.5c1.2-4.1,1.9-8.7,1.9-13.8c0-5.1-0.6-9.7-1.9-13.8
			c-1.2-4.1-3-7.7-5.4-10.6c-2.3-2.9-5.2-5.2-8.7-6.8c-3.4-1.6-7.3-2.4-11.6-2.4c-4.4,0-8.3,0.8-11.7,2.5c-3.4,1.6-6.3,3.9-8.6,6.9
			c-2.3,2.9-4.1,6.5-5.4,10.6C344.1,180.4,343.4,184.9,343.4,189.9z"/>
		<path class="st1" d="M511.6,241.9c-6.7-11.9-13.9-23.6-21.7-35.2c-7.8-11.6-16.1-22.5-24.8-32.8v67.9h-23V138.2h19
			c3.3,3.3,6.9,7.3,10.9,12.1c4,4.8,8.1,9.9,12.2,15.3c4.1,5.4,8.3,11.1,12.3,16.9c4.1,5.8,7.9,11.4,11.5,16.8v-61.2h23.2v103.7
			H511.6z"/>
		<path class="st1" d="M632.1,138.2v19.9h-31.3v83.8h-23.3v-83.8h-31.3v-19.9H632.1z"/>
		<path class="st1" d="M677.4,137c15.6,0,27.5,2.8,35.8,8.3c8.3,5.5,12.4,14.1,12.4,25.8c0,7.3-1.7,13.2-5,17.7
			c-3.3,4.5-8.2,8.1-14.4,10.7c2.1,2.6,4.3,5.6,6.6,8.9c2.3,3.3,4.6,6.8,6.8,10.5c2.2,3.6,4.4,7.4,6.5,11.4c2.1,3.9,4,7.8,5.8,11.6
			h-26.1c-1.9-3.4-3.8-6.8-5.8-10.3c-2-3.5-4-6.9-6-10.2c-2.1-3.3-4.1-6.4-6.1-9.4c-2-2.9-4-5.6-6-8h-11.5v37.9h-23.3V139.7
			c5.1-1,10.3-1.7,15.8-2.1C668.3,137.2,673.2,137,677.4,137z M678.8,156.9c-1.7,0-3.2,0.1-4.6,0.1c-1.3,0.1-2.6,0.2-3.8,0.3v28.1
			h6.6c8.8,0,15.1-1.1,18.9-3.3c3.8-2.2,5.7-5.9,5.7-11.2c0-5.1-1.9-8.7-5.8-10.8C691.9,157.9,686.3,156.9,678.8,156.9z"/>
		<path class="st1" d="M843,189.9c0,8.9-1.3,16.7-4,23.4c-2.6,6.7-6.3,12.4-10.8,16.9c-4.6,4.5-10.1,8-16.4,10.3
			c-6.3,2.3-13.1,3.4-20.4,3.4c-7.1,0-13.8-1.1-20.1-3.4c-6.3-2.3-11.8-5.7-16.5-10.3c-4.7-4.5-8.4-10.2-11.1-16.9
			c-2.7-6.7-4-14.5-4-23.4c0-8.9,1.4-16.7,4.2-23.4c2.8-6.7,6.6-12.4,11.3-17c4.7-4.6,10.2-8,16.5-10.3c6.2-2.3,12.8-3.4,19.7-3.4
			c7.1,0,13.8,1.1,20.1,3.4c6.3,2.3,11.8,5.7,16.5,10.3c4.7,4.6,8.4,10.3,11.1,17C841.6,173.3,843,181.1,843,189.9z M763.8,189.9
			c0,5.1,0.6,9.7,1.9,13.8c1.2,4.1,3,7.6,5.4,10.5c2.3,2.9,5.2,5.2,8.6,6.8c3.4,1.6,7.3,2.4,11.7,2.4c4.3,0,8.2-0.8,11.6-2.4
			c3.4-1.6,6.3-3.9,8.7-6.8c2.3-2.9,4.1-6.5,5.4-10.5c1.2-4.1,1.9-8.7,1.9-13.8c0-5.1-0.6-9.7-1.9-13.8c-1.2-4.1-3-7.7-5.4-10.6
			c-2.3-2.9-5.2-5.2-8.7-6.8c-3.4-1.6-7.3-2.4-11.6-2.4c-4.4,0-8.3,0.8-11.7,2.5c-3.4,1.6-6.3,3.9-8.6,6.9
			c-2.3,2.9-4.1,6.5-5.4,10.6C764.4,180.4,763.8,184.9,763.8,189.9z"/>
		<path class="st1" d="M931.7,221.8v20.1h-69.3V138.2h23.3v83.7H931.7z"/>
		<path class="st1" d="M1020.9,241.9c-1.2-3.6-2.4-7.3-3.7-11.1c-1.3-3.8-2.7-7.6-4-11.3h-40.5c-1.3,3.8-2.6,7.6-3.9,11.4
			c-1.3,3.8-2.5,7.5-3.7,11.1h-24.2c3.9-11.2,7.6-21.5,11.1-31c3.5-9.5,6.9-18.4,10.3-26.8c3.4-8.4,6.7-16.3,9.9-23.9
			s6.6-14.9,10.1-22.1h22.1c3.4,7.2,6.8,14.5,10.1,22.1c3.3,7.5,6.6,15.5,10,23.9c3.4,8.4,6.8,17.3,10.3,26.8
			c3.5,9.5,7.2,19.8,11.1,31H1020.9z M992.8,161.7c-0.5,1.5-1.3,3.6-2.3,6.1c-1,2.6-2.1,5.6-3.4,9s-2.7,7.1-4.3,11.2
			c-1.6,4.1-3.2,8.4-4.8,12.9h29.7c-1.6-4.5-3.1-8.8-4.6-12.9c-1.5-4.1-2.9-7.8-4.2-11.2c-1.3-3.4-2.5-6.4-3.5-9
			C994.3,165.2,993.4,163.1,992.8,161.7z"/>
	</g>
</g>
</svg>
